<?xml version="1.0" standalone="yes"?>
<svg xmlns="http://www.w3.org/2000/svg" width="512" height="512">
<path style="fill:#202327; stroke:none;" d="M0 0L0 233L1 233C1.01625 208.458 9.10165 182.565 18.2006 160C45.7493 91.6796 104.046 36.336 174 13C192.649 6.77878 213.21 1.0545 233 1L211 0L164 0L0 0z"/>
<path style="fill:#fdbc0f; stroke:none;" d="M233 0.424377C189.586 6.14142 149.78 18.1375 113 42.6667C85.2422 61.179 61.179 85.2423 42.6667 113C-40.3889 237.535 2.78163 414.466 137 483.742C185.711 508.883 240.891 517.007 295 509.718C330.168 504.98 365.42 491.498 395 471.997C431.634 447.845 461.779 415.662 482.691 377C541.567 268.152 510.061 126.672 412 51.8843C386.532 32.4609 357.763 18.1229 327 9.29089C297.576 0.84317 263.567 -3.60083 233 0.424377z"/>
<path style="fill:#202327; stroke:none;" d="M279 0L279 1C369.417 1.24905 454.795 73.2281 490.306 152C501.421 176.656 510.925 205.682 511 233L512 233L512 0L279 0z"/>
<path style="fill:#f4f6f8; stroke:none;" d="M88 113C42.9594 160.094 72.6133 248.131 141 249.956C159.594 250.452 173.721 215.019 163.697 200.318C160.716 195.947 148.88 196.739 144 195.525C132.192 192.587 121.993 186.834 113.09 178.575C100.832 167.204 93.2979 151.271 90.2608 135C88.9728 128.1 90.6538 119.324 88 113M423 113C423 142.843 413.128 172.289 386 188.373C378.249 192.969 368.935 195.932 360 196.95C356.086 197.396 349.856 197.04 347.879 201.148C340.728 216.009 349.932 242.414 365 248.91C370.292 251.192 377.601 249.338 383 248.112C429.928 237.457 456.755 188.3 441.667 143C438.066 132.191 432.384 119.912 423 113z"/>
<path style="fill:#9c9fa3; stroke:none;" d="M216 187L216 188L221 188L216 187z"/>
<path style="fill:#816c3e; stroke:none;" d="M164 197C165.058 204.857 166.861 211.97 165.84 220C164.509 230.474 155.551 248.1 144 250.201C136.185 251.622 127.615 247.388 120 246.3C103.996 244.013 85.7473 246.069 70 249.2C63.8983 250.413 56.7375 251.619 52.1481 256.214C41.7991 266.575 62.8161 279.21 70 283.921C97.3491 301.859 119.06 288.973 148 283C149.955 307.767 158.237 333.822 169.248 356C173.089 363.737 186.576 378.45 184 387C202.56 375.942 234.76 382 256 382L256 188C225.293 187.915 193.411 185.671 164 197z"/>
<path style="fill:#9c9fa3; stroke:none;" d="M247 187L247 188L251 188L247 187M261.667 187.333L262.333 187.667L261.667 187.333z"/>
<path style="fill:#816c3e; stroke:none;" d="M263 187L263 188L294 188L263 187z"/>
<path style="fill:#9c9fa3; stroke:none;" d="M294.667 187.333L295.333 187.667L294.667 187.333M205 188L206 189L205 188z"/>
<path style="fill:#202327; stroke:none;" d="M256 188L256 382L210 382C202.993 382 194.406 380.65 188.004 384.05C171.128 393.012 169.935 431.777 187.004 441.084C194.281 445.052 203.018 444 211 444L256 444L256 467C270.072 467 284.736 466.955 297 458.892C302.534 455.254 305.753 448.206 311.209 445.028C317.846 441.161 324.76 443.765 330.61 436.907C339.855 426.066 340.312 392.835 326 386C329.664 373.306 339.744 362.2 345.138 350C354.859 328.014 359.629 305.46 364 282C390.231 291.896 417.249 299.752 442 283.333C448.667 278.91 468.749 267.4 460.482 257.213C454.668 250.048 440.516 248.909 432 247.95C419.58 246.551 406.507 244.664 394 246.289C386.016 247.327 374.962 252.731 367 250.233C354.928 246.446 347.649 230.39 345.755 219C344.531 211.643 346.37 205.131 348 198C321.505 184.039 284.902 188 256 188z"/>
<path style="fill:#816c3e; stroke:none;" d="M302 188L302 189L307 189L302 188z"/>
<path style="fill:#9c9fa3; stroke:none;" d="M307 188L308 189L307 188M196.667 189.333L197.333 189.667L196.667 189.333z"/>
<path style="fill:#816c3e; stroke:none;" d="M312 189L312 190L315 190L312 189z"/>
<path style="fill:#9c9fa3; stroke:none;" d="M315 189L316 190L315 189M189.667 190.333L190.333 190.667L189.667 190.333z"/>
<path style="fill:#816c3e; stroke:none;" d="M319 190L319 191L322 191L319 190z"/>
<path style="fill:#9c9fa3; stroke:none;" d="M322 190L323 191L322 190M184 191L185 192L184 191z"/>
<path style="fill:#816c3e; stroke:none;" d="M325 191L325 192L328 192L325 191z"/>
<path style="fill:#9c9fa3; stroke:none;" d="M328 191L329 192L328 191M179 192L180 193L179 192z"/>
<path style="fill:#816c3e; stroke:none;" d="M331.667 192.333L332.333 192.667L331.667 192.333z"/>
<path style="fill:#9c9fa3; stroke:none;" d="M333 192L334 193L333 192M174 193L175 194L174 193z"/>
<path style="fill:#816c3e; stroke:none;" d="M335.667 193.333L336.333 193.667L335.667 193.333z"/>
<path style="fill:#9c9fa3; stroke:none;" d="M337 193L338 194L337 193z"/>
<path style="fill:#816c3e; stroke:none;" d="M339.667 194.333L340.333 194.667L339.667 194.333M342.667 195.333L343.333 195.667L342.667 195.333M345 196L346 197L345 196z"/>
<path style="fill:#9c9fa3; stroke:none;" d="M346 196L347 197L346 196M163.333 197.667L163.667 198.333L163.333 197.667z"/>
<path style="fill:#816c3e; stroke:none;" d="M347 197L348 198L347 197z"/>
<path style="fill:#9c9fa3; stroke:none;" d="M348.333 197.667L348.667 198.333L348.333 197.667M164.333 200.667L164.667 201.333L164.333 200.667z"/>
<path style="fill:#816c3e; stroke:none;" d="M347 200L348 201L347 200z"/>
<path style="fill:#9c9fa3; stroke:none;" d="M347 201L348 202L347 201z"/>
<path style="fill:#816c3e; stroke:none;" d="M346.333 203.667L346.667 204.333L346.333 203.667z"/>
<path style="fill:#9c9fa3; stroke:none;" d="M165.333 204.667L165.667 205.333L165.333 204.667M346.333 205.667L346.667 206.333L346.333 205.667z"/>
<path style="fill:#816c3e; stroke:none;" d="M345 209L345 218L346 218L345 209z"/>
<path style="fill:#9c9fa3; stroke:none;" d="M166 212L166 215L167 215L166 212M346 220L346 223L347 223L346 220M165.333 221.667L165.667 222.333L165.333 221.667z"/>
<path style="fill:#816c3e; stroke:none;" d="M346 223L347 224L346 223z"/>
<path style="fill:#9c9fa3; stroke:none;" d="M164.333 225.667L164.667 226.333L164.333 225.667M347 225L348 226L347 225z"/>
<path style="fill:#816c3e; stroke:none;" d="M347 226L348 227L347 226z"/>
<path style="fill:#9c9fa3; stroke:none;" d="M348 228L349 229L348 228M163 229L164 230L163 229z"/>
<path style="fill:#816c3e; stroke:none;" d="M348 229L349 230L348 229z"/>
<path style="fill:#9c9fa3; stroke:none;" d="M162 231L163 232L162 231M349 231L350 232L349 231M161 233L162 234L161 233M350 233L351 234L350 233M160 235L161 236L160 235z"/>
<path style="fill:#816c3e; stroke:none;" d="M351 235L352 236L351 235z"/>
<path style="fill:#9c9fa3; stroke:none;" d="M352 236L353 237L352 236z"/>
<path style="fill:#816c3e; stroke:none;" d="M352 237L353 238L352 237z"/>
<path style="fill:#9c9fa3; stroke:none;" d="M158 238L159 239L158 238z"/>
<path style="fill:#816c3e; stroke:none;" d="M353 238L354 239L353 238z"/>
<path style="fill:#9c9fa3; stroke:none;" d="M157 239L158 240L157 239M354 239L355 240L354 239z"/>
<path style="fill:#816c3e; stroke:none;" d="M355 241L356 242L355 241M356 242L357 243L356 242M357 243L358 244L357 243M358 244L359 245L358 244z"/>
<path style="fill:#9c9fa3; stroke:none;" d="M103 245L103 246L110 246L103 245z"/>
<path style="fill:#816c3e; stroke:none;" d="M359 245L360 246L359 245M401 245L401 246L409 246L401 245z"/>
<path style="fill:#9c9fa3; stroke:none;" d="M88.6667 246.333L89.3333 246.667L88.6667 246.333M121.667 246.333L122.333 246.667L121.667 246.333z"/>
<path style="fill:#816c3e; stroke:none;" d="M360 246L361 247L360 246z"/>
<path style="fill:#9c9fa3; stroke:none;" d="M389 246L390 247L389 246z"/>
<path style="fill:#816c3e; stroke:none;" d="M390 246L390 247L393 247L390 246M418 246L418 247L424 247L418 246z"/>
<path style="fill:#9c9fa3; stroke:none;" d="M79.6667 247.333L80.3333 247.667L79.6667 247.333M125.667 247.333L126.333 247.667L125.667 247.333M362 247L363 248L362 247M385 247L386 248L385 247z"/>
<path style="fill:#816c3e; stroke:none;" d="M386.667 247.333L387.333 247.667L386.667 247.333M428 247L428 248L433 248L428 247z"/>
<path style="fill:#9c9fa3; stroke:none;" d="M73 248L74 249L73 248M129.667 248.333L130.333 248.667L129.667 248.333M148 248L149 249L148 248M363 248L364 249L363 248M381 248L382 249L381 248z"/>
<path style="fill:#816c3e; stroke:none;" d="M382.667 248.333L383.333 248.667L382.667 248.333M436 248L436 249L439 249L436 248z"/>
<path style="fill:#9c9fa3; stroke:none;" d="M68 249L69 250L68 249M134 249L134 250L137 250L134 249z"/>
<path style="fill:#816c3e; stroke:none;" d="M364 249L365 250L364 249z"/>
<path style="fill:#9c9fa3; stroke:none;" d="M365 249L366 250L365 249M374 249L374 250L377 250L374 249z"/>
<path style="fill:#816c3e; stroke:none;" d="M377.667 249.333L378.333 249.667L377.667 249.333M441 249L441 250L445 250L441 249z"/>
<path style="fill:#9c9fa3; stroke:none;" d="M142 250L142 251L146 251L142 250M366.667 250.333L367.333 250.667L366.667 250.333z"/>
<path style="fill:#816c3e; stroke:none;" d="M368 250L368 251L372 251L368 250M446 250L446 251L449 251L446 250z"/>
<path style="fill:#9c9fa3; stroke:none;" d="M60 251L61 252L60 251z"/>
<path style="fill:#816c3e; stroke:none;" d="M450.667 251.333L451.333 251.667L450.667 251.333M453 252L454 253L453 252M455 253L456 254L455 253M457 254L458 255L457 254M459 255L460 256L459 255z"/>
<path style="fill:#9c9fa3; stroke:none;" d="M51 256L52 257L51 256z"/>
<path style="fill:#816c3e; stroke:none;" d="M460 256L461 257L460 256M461 257L462 258L461 257M462.333 259.667L462.667 260.333L462.333 259.667M462.333 263.667L462.667 264.333L462.333 263.667z"/>
<path style="fill:#9c9fa3; stroke:none;" d="M49 264L50 265L49 264z"/>
<path style="fill:#816c3e; stroke:none;" d="M461 266L462 267L461 266M460 268L461 269L460 268z"/>
<path style="fill:#9c9fa3; stroke:none;" d="M52 269L53 270L52 269z"/>
<path style="fill:#816c3e; stroke:none;" d="M459 269L460 270L459 269M458 270L459 271L458 270M457 271L458 272L457 271M456 272L457 273L456 272M455 273L456 274L455 273z"/>
<path style="fill:#9c9fa3; stroke:none;" d="M57 274L58 275L57 274z"/>
<path style="fill:#816c3e; stroke:none;" d="M454 274L455 275L454 274M451 276L452 277L451 276M450 277L451 278L450 277z"/>
<path style="fill:#9c9fa3; stroke:none;" d="M62 278L63 279L62 278z"/>
<path style="fill:#816c3e; stroke:none;" d="M449 278L450 279L449 278z"/>
<path style="fill:#202327; stroke:none;" d="M0 279L0 512L233 512L233 511C144.924 510.757 58.6505 440.98 23.3086 364C15.393 346.759 9.16444 328.566 5.21065 310C3.16112 300.376 3.74146 287.896 0 279z"/>
<path style="fill:#816c3e; stroke:none;" d="M447 279L448 280L447 279z"/>
<path style="fill:#202327; stroke:none;" d="M511 279C510.932 303.566 502.906 329.415 493.799 352C466.251 420.32 407.954 475.664 338 499C319.315 505.233 298.831 510.945 279 511L279 512L512 512L512 348L512 301L511 279z"/>
<path style="fill:#9c9fa3; stroke:none;" d="M65 280L66 281L65 280z"/>
<path style="fill:#816c3e; stroke:none;" d="M446 280L447 281L446 280M444 281L445 282L444 281M364 282L365 283L364 282M443 282L444 283L443 282M367.667 283.333L368.333 283.667L367.667 283.333M441 283L442 284L441 283M363 284L363 288L364 288L363 284M371.667 284.333L372.333 284.667L371.667 284.333M440 284L441 285L440 284M375.667 285.333L376.333 285.667L375.667 285.333M438 285L439 286L438 285z"/>
<path style="fill:#9c9fa3; stroke:none;" d="M74 286L75 287L74 286z"/>
<path style="fill:#816c3e; stroke:none;" d="M379.667 286.333L380.333 286.667L379.667 286.333M437 286L438 287L437 286z"/>
<path style="fill:#9c9fa3; stroke:none;" d="M148 287L149 288L148 287z"/>
<path style="fill:#816c3e; stroke:none;" d="M382.667 287.333L383.333 287.667L382.667 287.333M435 287L436 288L435 287M386.667 288.333L387.333 288.667L386.667 288.333M433 288L434 289L433 288M390.667 289.333L391.333 289.667L390.667 289.333M431.667 289.333L432.333 289.667L431.667 289.333z"/>
<path style="fill:#9c9fa3; stroke:none;" d="M81 290L82 291L81 290M118 290L119 291L118 290z"/>
<path style="fill:#816c3e; stroke:none;" d="M393.667 290.333L394.333 290.667L393.667 290.333M429.667 290.333L430.333 290.667L429.667 290.333M362 291L362 295L363 295L362 291M397.667 291.333L398.333 291.667L397.667 291.333M427 291L428 292L427 291M400.667 292.333L401.333 292.667L400.667 292.333M424.667 292.333L425.333 292.667L424.667 292.333z"/>
<path style="fill:#9c9fa3; stroke:none;" d="M89 293L90 294L89 293z"/>
<path style="fill:#816c3e; stroke:none;" d="M403 293L403 294L406 294L403 293M420 293L420 294L423 294L420 293z"/>
<path style="fill:#9c9fa3; stroke:none;" d="M94 294L95 295L94 294z"/>
<path style="fill:#816c3e; stroke:none;" d="M408 294L408 295L418 295L408 294M361 297L361 300L362 300L361 297z"/>
<path style="fill:#9c9fa3; stroke:none;" d="M150 299L151 300L150 299z"/>
<path style="fill:#816c3e; stroke:none;" d="M360.333 302.667L360.667 303.333L360.333 302.667M359 306L359 309L360 309L359 306z"/>
<path style="fill:#9c9fa3; stroke:none;" d="M152 308L153 309L152 308z"/>
<path style="fill:#816c3e; stroke:none;" d="M358 310L358 313L359 313L358 310z"/>
<path style="fill:#9c9fa3; stroke:none;" d="M153 312L154 313L153 312z"/>
<path style="fill:#816c3e; stroke:none;" d="M357.333 314.667L357.667 315.333L357.333 314.667M356.333 318.667L356.667 319.333L356.333 318.667z"/>
<path style="fill:#9c9fa3; stroke:none;" d="M155 319L156 320L155 319z"/>
<path style="fill:#816c3e; stroke:none;" d="M355.333 321.667L355.667 322.333L355.333 321.667M354 325L355 326L354 325M353 328L354 329L353 328M352 331L353 332L352 331M351.333 333.667L351.667 334.333L351.333 333.667M350.333 336.667L350.667 337.333L350.333 336.667z"/>
<path style="fill:#9c9fa3; stroke:none;" d="M161 337L162 338L161 337z"/>
<path style="fill:#816c3e; stroke:none;" d="M349 339L350 340L349 339M348.333 341.667L348.667 342.333L348.333 341.667z"/>
<path style="fill:#9c9fa3; stroke:none;" d="M163 342L164 343L163 342z"/>
<path style="fill:#816c3e; stroke:none;" d="M347 344L348 345L347 344M346.333 346.667L346.667 347.333L346.333 346.667M345 349L346 350L345 349M344 351L345 352L344 351M343 353L344 354L343 353M342 355L343 356L342 355M341 357L342 358L341 357M340 359L341 360L340 359M339 361L340 362L339 361M338 363L339 364L338 363M337 365L338 366L337 365M336 366L337 367L336 366M335 368L336 369L335 368z"/>
<path style="fill:#9c9fa3; stroke:none;" d="M177 370L178 371L177 370z"/>
<path style="fill:#816c3e; stroke:none;" d="M334 370L335 371L334 370M333 371L334 372L333 371z"/>
<path style="fill:#9c9fa3; stroke:none;" d="M179 373L180 374L179 373z"/>
<path style="fill:#816c3e; stroke:none;" d="M332 373L333 374L332 373M331 374L332 375L331 374M330 376L331 377L330 376M329.333 377.667L329.667 378.333L329.333 377.667z"/>
<path style="fill:#9c9fa3; stroke:none;" d="M182 378L183 379L182 378z"/>
<path style="fill:#816c3e; stroke:none;" d="M328 379L329 380L328 379M327 381L328 382L327 381M326 383L327 384L326 383M326 385L327 386L326 385M181 389L182 390L181 389M180 390L181 391L180 390M179 391L180 392L179 391M332 391L333 392L332 391M178 393L179 394L178 393M333 393L334 394L333 393M177 395L178 396L177 395M334 395L335 396L334 395M335.333 397.667L335.667 398.333L335.333 397.667M176.333 398.667L176.667 399.333L176.333 398.667M336 403L336 423L337 423L336 403z"/>
<path style="fill:#9c9fa3; stroke:none;" d="M175 405L175 421L176 421L175 405z"/>
<path style="fill:#816c3e; stroke:none;" d="M176.333 426.667L176.667 427.333L176.333 426.667M335.333 427.667L335.667 428.333L335.333 427.667M177 430L178 431L177 430M334 430L335 431L334 430M178 432L179 433L178 432M333 432L334 433L333 432M179 434L180 435L179 434M332 434L333 435L332 434M180 435L181 436L180 435M184 439L185 440L184 439M185 440L186 441L185 440M326 440L327 441L326 440M187 441L188 442L187 441M325 441L326 442L325 441M188.667 442.333L189.333 442.667L188.667 442.333M323 442L324 443L323 442M191 443L191 444L194 444L191 443M319.667 443.333L320.333 443.667L319.667 443.333M202 444C210.549 470.774 249.084 468 271 468L271 467L256 467L256 444L202 444M309 445L310 446L309 445M308 447L309 448L308 447M307 449L308 450L307 449M306 450L307 451L306 450M305 451L306 452L305 451M304 452L305 453L304 452M303 453L304 454L303 453M302 454L303 455L302 454M301 455L302 456L301 455M300 456L301 457L300 456M299 457L300 458L299 457M297 458L298 459L297 458z"/>
<path style="fill:#9c9fa3; stroke:none;" d="M215 459L216 460L215 459z"/>
<path style="fill:#816c3e; stroke:none;" d="M296 459L297 460L296 459M294 460L295 461L294 460M292 461L293 462L292 461M289.667 462.333L290.333 462.667L289.667 462.333M287.667 463.333L288.333 463.667L287.667 463.333z"/>
<path style="fill:#9c9fa3; stroke:none;" d="M226 464L227 465L226 464z"/>
<path style="fill:#816c3e; stroke:none;" d="M284.667 464.333L285.333 464.667L284.667 464.333M280.667 465.333L281.333 465.667L280.667 465.333M274 466L274 467L278 467L274 466z"/>
<path style="fill:#9c9fa3; stroke:none;" d="M242 467L243 468L242 467z"/>
</svg>
